<?xml version="1.0" encoding="utf-8"?>
<!-- Generator: Adobe Illustrator 24.0.1, SVG Export Plug-In . SVG Version: 6.00 Build 0)  -->
<svg version="1.1" xmlns="http://www.w3.org/2000/svg" xmlns:xlink="http://www.w3.org/1999/xlink" x="0px" y="0px"
	 viewBox="0 0 512 512" style="enable-background:new 0 0 512 512;" xml:space="preserve">
<style type="text/css">
	.st0{fill:#45B39C;}
	.st1{fill:#B18254;}
	.st2{fill:#87CEEB;}
	.st3{opacity:0.1;enable-background:new    ;}
	.st4{fill:#57595B;}
	.st5{fill:#DC8744;}
	.st6{fill:#3A556A;}
	.st7{fill:#64798A;}
	.st8{fill:#FCD462;}
	.st9{fill:#F6C358;}
	.st10{filter:url(#Adobe_OpacityMaskFilter);}
	.st11{opacity:0.1;mask:url(#SVGID_1_);}
</style>
<g id="Layer_1">
	<circle class="st0" cx="256" cy="256" r="256"/>
</g>
<g id="Layer_1_copy">
	<circle class="st1" cx="256" cy="256" r="256"/>
</g>
<g id="Layer_1_copy_2">
	<circle class="st2" cx="256" cy="256" r="256"/>
</g>
<g id="Layer_7">
	<path class="st3" d="M511.3,274.6L330.5,93.9l-1.1-1.2c-1.4-1.6-2.9-3-4.5-4.5c-18-17-42.2-27.4-68.9-27.4
		c-55.5,0-100.7,45.2-100.7,100.7v1.1h1.1l51.4,51.4h-67.4c-11.8,0-21.3,9.5-21.3,21.3v174c0,5.9,2.4,11.2,6.2,15.1l81.9,81.9
		c15.8,3,32.1,4.7,48.8,4.7C390.8,511,501.2,406.8,511.3,274.6z"/>
</g>
<g id="Layer_2">
	<g>
		<g>
			<path class="st4" d="M324.5,214.1V92.3H187.5l-32.2,70.4l7.3,6.2h24.9h11l0.1-6.4c0-32.6,25.6-59,57.1-59
				c31.5,0,57.1,26.4,57.1,59v51.6H324.5z"/>
		</g>
		<path class="st5" d="M371.6,227h-14.9h-35.9H256h-64.8h-35.9h-14.9c-11.8,0-21.3,9.5-21.3,21.3v161c0,11.8,9.5,21.3,21.3,21.3H256
			h115.6c11.8,0,21.3-9.5,21.3-21.3v-161C392.9,236.6,383.4,227,371.6,227z"/>
		<path class="st6" d="M256,96.8c35.7,0,64.8,29,64.8,64.8v52.5h35.9v-52.5c0-55.5-45.2-100.7-100.7-100.7h0L256,96.8L256,96.8
			L256,96.8z"/>
		<path class="st7" d="M243,98.1c4.2-0.9,8.6-1.3,13-1.3V60.9c-55.5,0-100.7,45.2-100.7,100.7v1.1h35.9v-1.1c0-17.9,7.3-34,19-45.8
			c2.9-2.9,6.1-5.6,9.6-7.9C226.7,103.2,234.5,99.9,243,98.1z"/>
		<path class="st8" d="M191.2,214.1h-35.9h-14.9c-11.8,0-21.3,9.5-21.3,21.3v161c0,11.8,9.5,21.3,21.3,21.3H256V214.1H191.2z"/>
		<path class="st9" d="M371.6,214.1h-14.9h-35.9H256v203.7h115.6c11.8,0,21.3-9.5,21.3-21.3v-161
			C392.9,223.6,383.4,214.1,371.6,214.1z"/>
	</g>
</g>
<g id="Layer_5">
	<g id="Layer_9_2_">
		<g>
			<g>
				<path class="st5" d="M240.8,399.5c7.8-3.9,15.7-3.8,23.8-1.2c2.8,1,5.9,1,8.7,0c-0.4,1.7-0.9,2.1-3.2,2.6
					c-1.3,0.3-2.6,0.5-3.9,0.3h-0.4c-7.6-0.9-15.1-2.5-22.7-0.9c-0.5,0.1-1.1,0.1-1.7,0.2l-1.9-0.1
					C239.8,400.1,240.3,399.8,240.8,399.5z"/>
				<path class="st5" d="M215.3,388.4c1.1-1,2.4-1.6,3.9-1.8c6.2-1.4,12.4-0.6,18.5,0.6c5.8,1.4,12,0.5,17.1-2.5
					c4.5-2.7,9.3-2.1,14.1-0.9c4.8,1.2,9,2.9,13.6,3.7c5.5,1,11.2,0.3,16.3-2c0.3-0.1,0.5-0.1,0.8-0.2c-1,1.7-2.6,2.9-4.5,3.5
					c-6,2-12.4,2.5-18.6,1.4c-5.2-0.7-10.4-2-15.6-2.5c-2.2-0.2-4.4,0.1-6.5,0.9c-3.7,1.8-7.7,2.7-11.8,2.7c-1.6,0-3.1-0.2-4.6-0.7
					C230.8,387.9,222.9,387.1,215.3,388.4z"/>
				<path class="st5" d="M189.1,379c9.1-1.2,10.8-1.8,13.6-5.2c0.2,0.2,0.4,0.3,0.6,0.5c1.9,2.9,5.5,4.2,8.8,3.1
					c4.2-1,8.5-1.8,12.8-2.3c5.3-0.6,10.6,0.5,15.3,3l3.6,1.8c3.2,1.9,7.3,1.4,10-1.2c-0.1,2.3-1.8,3.8-4.8,4.1
					c-5.1,0.6-10.2-0.2-14.8-2.4c-6.9-3.5-13.9-3.2-20.9-0.9c-2.1,0.8-4.4,1.2-6.6,1.1c-1.3,0.1-2.6-0.3-3.5-1.2
					c-1.3-1.7-2.5-1.2-4-0.7C195.9,379.9,192.4,380,189.1,379z"/>
				<path class="st5" d="M343.6,385.8c-1.7,1-3.6,1.6-5.5,1.7c-4.2,0.2-8.4-0.3-12.5-1.4c-5-1.2-9.7-0.5-15,0.6
					c5.1-3.3,10.1-5,15.6-3.8C331.6,384.1,337.2,385.7,343.6,385.8z"/>
				<path class="st5" d="M168.4,383.7c1.4-0.2,2.8,0.1,4.1,0.7c4.5,1.5,8.9,0.5,13.3-0.2c3.8-0.9,7.8-1,11.6-0.3
					c0.5,0,1,0.4,1.3,0.8c-5.7,0.3-11.1,1.8-16.6,2.3C177.3,387.9,172.3,386.6,168.4,383.7z"/>
				<path class="st5" d="M300.1,394.4c5.5-2.8,12-3.1,17.8-0.8c3.2,1.1,6.5,2.2,10,1.3c-3.1,2-7.1,2.4-10.5,1
					c-5.4-2.1-11.2-2.4-16.8-1.1c-0.4,0.1-2,0.7-2,0.7C299,395,299.5,394.6,300.1,394.4z"/>
				<path class="st5" d="M195.2,391c4.9-2.6,10.7-3,15.9-1.2c3.5,1.4,7.2,2.2,11,2.2c-3.1,1.8-6.7,2-10,0.5c-5.2-2-10.9-2.4-16.3-1
					c-0.7,0.3-1.4,0.5-2.2,0.6C194,391.5,194.6,391.2,195.2,391z"/>
				<path class="st5" d="M315.6,372c-0.3,0-0.7,0.2-1,0.3c-4.9,1.5-10.1,1.5-15-0.2c-1.4-0.5-2.7-1.9-3.9-2c-1.2-0.1-2.1,2-3.3,2.8
					c-3.6,2.1-7.8,3.2-12,3.3h-3.8c0,0-0.5,0-0.5,0c0,0,0.4,0.2,0.5,0.2l2.1,0.4c0.5,0.1,1,0.2,1.5,0.3c4.9,0.5,9.9,1.1,14.1-1.8
					c1.6-1.3,3.8-1.5,5.5-0.4c5.9,2.7,12.7,1.3,16.2-3C315.7,372.1,315.7,371.9,315.6,372z"/>
				<path class="st5" d="M218,275.6c-0.3,0.2-0.8,0-0.9,0.5l-0.7-0.7C217,275,217.5,275.3,218,275.6z"/>
				<path class="st5" d="M312.9,319.3c-3.5-6.7-9.3-12-16.2-15c-0.7-0.2-1.3-0.7-1.7-1.3c-2.1-4-5.8-7-7.8-11.2
					c-1.1-1.9-2.8-3.4-4.8-4.2c-0.7-0.3-1.3-0.6-1.8-1.1c-2-2.7-4.5-2.3-7-1.1c-1.8,0.8-2.4,0-2.7-1.5c-0.4-1.8,0.1-3.6,1.2-5
					c2.4-3.4,5.1-6.6,8.3-9.3c-2.6,0.2-5.1,0.5-7.6,1.1c-2.1,0.3-4.2,0.9-6.3,1.2c-1,0.2-2,0-2.3-1.1c-0.3-1.1,0.9-1.3,1.7-1.6
					c2.3-0.8,4.8-1.5,7.1-2.2c0.5-0.2,1.2,0,1.3-0.8c0.5-2,0.8-3.9,0.9-5.9c-2.9,0.8-5.7,1.6-8.5,2.2c-1.2,0.3-2.6,0.3-3-1.2
					c-1.2-4,1-6.9,5.2-6.7c0.9,0.1,1.7,0.3,2.5,0.6c1.5,0.6,3,1.3,4.6,2c1.4-5.1,2.2-10.3,5.5-14.8c-5.2,1-10.2,1.9-15.1,3.1
					c-2.1,0.5-2.5,0.1-2.4-1.9c0.2-4.4,0-8.8,0-13.5c-3.4,2.6-7.6,4-11.9,3.9c-0.9,0-1.2,0.3-1,1.1c0.3,2-0.1,4-1.2,5.7
					c-0.8,1.3-1.2,2.8-1.1,4.3c5-4.6,4-3.3,12.4-4.8c0.7,5.9,0.5,6.2-5,8c-0.6,0.2-1.2,0.3-1.9,0.5c-3.5,1.1-7.1,0.8-10.7,0.9
					c0.2,0.6,0.3,1.1,0.4,1.6c0.8,2.6,1.3,5.3,1.4,8c0.2,2.1-1.2,4-3.2,4.4c0-1.7,0-3.5,0-5.2c0-0.7,0.5-1.8-0.5-2.1
					c-0.7-0.3-1.5,0.3-2.1,0.8c-2.2,1.9-2.5,1.7-3.2-1.2c-0.1-0.6-0.3-1.2-0.5-1.8c-0.3-0.9-1.2-1.3-2.1-1c-1.5,0.4-2.3,1.9-3.9,2.4
					c-0.5,0.2-0.2,2,0,3c0.9-0.2,1.7-0.3,2.4-0.5c0.7-0.2,1.9-0.5,2.6,0.7c1,1.7,2.2,2.6,4.3,1.7c0.4-0.2,1.1-0.5,1.3,0.5
					c0.9,3-0.3,4.5-3.3,4.1c0.1,1.6,0.4,3.1,1,4.6c1.2,3.6,1,4.1-2.6,4.8c0.7,2.9,1.7,5.8,0.8,8.8c-0.3,1-0.7,2-2,1.7
					c-1-0.2-1.3-1.1-1.2-2.2c0.1-1.6,0.1-3.1,0-4.7c-0.3-3.3-0.7-3.6-4-3.3c-3.7,0.3-7.4,0.7-11.1,0.6c-0.5-0.2-1-0.3-0.9,0.5
					c2.2,2.9,2.2,5.3-0.3,7.8c-0.7,0.6-0.8,1.6-0.2,2.3c0.1,0.1,0.1,0.1,0.2,0.2l3.9,4.7c-4,0.3-8,0.2-12-0.1
					c1.2,3.3,1.1,6.9-0.2,10.1c-0.6,1.5-1,3.1-1,4.7c0.1,1.2-0.3,1.4-1.4,1.4c-2.1-0.1-4.2,0-6.4,0c1.2,1,2.3,2,3.3,3.2
					c2.3,2.4,2.6,6.1,0.7,8.9c-1.6,2.8-3.7,5.3-6.2,7.3c-0.5,0.4-1,0.5-1.1,1.4c-0.6,5.8-0.2,11.6,1.1,17.2c0.5,1.9,2.1,3.8,1.9,5.3
					c-0.2,1.5-2.6,2.6-4,3.8c-0.8,0.5-1.1,1.6-0.6,2.4c2.1,4.4,4.1,8.8,6.1,13.2c0.3,0.7,0.6,0.9,1.4,0.6c4-1.1,8.1-1.8,12.2-2.1
					c7.7-0.7,15.4,0.9,22.1,4.6c1.1,0.7,2.5,0.8,3.8,0.3c11.9-4.2,24-7.5,36.8-5.9c0.7,0.2,1.4-0.2,1.7-0.9
					c7.1-14,18.8-22.7,33.3-28c0.6-0.2,1-0.3,1.1-1c0.7-5.4,2.4-10.5,5.2-15.2C314.8,323.8,314.1,321.5,312.9,319.3z M295.3,312.1
					c1.7,3.3,3.1,6.9,4.8,10.3c0.8,2,2.3,3.7,4.2,4.7c-1.1,1-1.8,2.7-3.2,2.4c-1.4-0.3-1.1-2.2-1.5-3.5c-1.7-5.6-3.8-11.1-8.1-15.4
					c-0.7-0.7-1.5-1.4-2.4-1.8c-0.5-0.2-0.7-0.7-0.6-1.1c0,0,0-0.1,0-0.1c0.3-0.8,0.8-0.3,1.2-0.2
					C292.3,308,294.3,309.7,295.3,312.1z M286.4,292.7c1.4,3.1,3.9,5.4,5.7,8.3l0.8,1.3c0.3,0.5,0.7,1.1,0.2,1.5
					c-0.6,0.4-1.2-0.1-1.6-0.7c-2.9-4.9-7.1-8.9-10.2-14.3C283.4,289.4,285.3,290.8,286.4,292.7L286.4,292.7z M277.8,290
					c0.7-1.2,1.4-1.2,2.3-0.1c2.8,3.7,5.6,7.3,8.3,11.1c1.7,2.2,1.2,3-1.6,3.3c-0.8,0.1-1.6,0.1-2.3,0.1c-3.5,0-4-0.4-4.1-4.1
					c0.1-0.5-0.2-1.1-0.7-1.3C277.3,296.7,276.5,293.1,277.8,290z M273.2,297.5c0.7,0,1.3,0.3,1.3,1.1c0,0.7-0.6,1.2-1.3,1.1
					c0,0,0,0,0,0c-1,0-0.4-0.9-0.6-1.3C272.3,298.1,272.5,297.4,273.2,297.5L273.2,297.5z M269.5,296.8c1,0.2,1.1,0.9,1,2.3
					c0,0,0.2,1-0.4,0.9c-1.3-0.2-0.9-1.6-1.1-2.4C268.6,297,268.9,296.6,269.5,296.8L269.5,296.8L269.5,296.8z M270.1,313.8
					c0.7,0,1,0.4,1.1,1.1c-0.2,0.6-0.3,1.3-1.1,1.3c-0.6,0.1-1.1-0.2-1.3-0.8c0-0.1,0-0.2,0-0.3c-0.1-0.7,0.4-1.3,1.1-1.4
					C269.9,313.7,270,313.7,270.1,313.8L270.1,313.8L270.1,313.8z M265,281.4c1.7-0.2,3.2,0.9,3.4,2.6c0,0.1,0,0.1,0,0.2
					c0.1,1.4-1,2.6-2.4,2.7c-0.1,0-0.3,0-0.4,0c-2.4,0.1-1.5-1.7-1.7-2.9C264.4,283.1,263,281.5,265,281.4L265,281.4L265,281.4z
					 M262.3,284.3c0,0.6,0.5,1.7-0.6,1.7c-0.8,0-0.7-1-0.7-1.7c-0.1-0.8,0.4-1.6,1.2-1.9C262.3,283,262.3,283.6,262.3,284.3
					L262.3,284.3L262.3,284.3z M257.8,260.7c1-1.7,2.4-3.1,4-4.1c0,1.9,0,3.5,0,5.1c0,1.2-0.9,1.2-1.7,1.5c-0.7,0.3-1.9,0.5-2.5-0.4
					C257.2,262.2,257.3,261.3,257.8,260.7L257.8,260.7L257.8,260.7z M255.8,269.4c1.7-0.3,3.4-0.3,5.1,0c1.6,0.2,1.1,1.5,0.7,2.3
					c-0.8,1.7-2.5,1.9-4.6,1.9c-0.4,0-0.9-0.1-1.3-0.2c-1-0.2-1.7-1.1-1.7-2.1C254.1,270,254.8,269.5,255.8,269.4L255.8,269.4
					L255.8,269.4z M259.1,287c-0.5,0-1-0.3-1.2-0.7c-0.9-1.4-0.3-2.9,1.8-4.1c0,1.4,0,2.5,0,3.7c0,0.4,0.3,1.1-0.5,1.1L259.1,287z
					 M253.9,285.6c0.3-1.1,1.1-1.7,2.3-2.6c0,1.3,0.2,2.1,0.2,3c0,0.5,0.7,1.2-0.1,1.7c-0.6,0.2-1.2,0.1-1.7-0.2
					C253.9,287,253.7,286.3,253.9,285.6L253.9,285.6z M251.4,269.2c0.7,0,1.2-0.2,1.2,1c-0.2,3.7-0.1,3.8-3.1,3.8
					c-1.5,0.2-2.7-0.3-2.7-2.3S248.1,269.2,251.4,269.2L251.4,269.2z M243.9,270c1.9-0.1,0.9,1.3,1.1,2c0.4,1.8-0.5,2.7-2.2,2.7
					c-1.2,0.1-2.3-0.8-2.4-2c0-0.1,0-0.1,0-0.2C240.4,271.2,242.2,270,243.9,270L243.9,270z M237.8,286c3.4-1.3,7.2-1.6,10.7-0.8
					c0.7,0.2,1.3,0.6,1.8,1.1c0.5,0.3,0.7,0.9,0.6,1.5c-0.2,0.6-0.8,0.7-1.4,0.7c-3.1,0.3-6.3,0.6-9.3,0.9c-0.6,0-1.1,0-1.7,0
					c-0.9,0.2-1.7-0.4-1.8-1.3c0,0,0-0.1,0-0.1C236.4,287.2,236.9,286.3,237.8,286C237.8,286,237.8,286,237.8,286L237.8,286z
					 M236,303.2c-0.1,1.4-1.7,1.3-2.9,1.3s-2.1-0.5-1.9-1.7s1.5-0.9,2.4-1.1C234.6,301.9,236.2,301.9,236,303.2L236,303.2z
					 M219,285.8c4.1-0.7,7.8-1.6,11.6-0.7c0.4,0,0.7,0.1,1,0.2c1.2,0.5,2.4,1,2.3,2.7c-0.1,1.3-1.2,2.3-2.4,2.2
					c-1.3,0.1-1.5,0.7-1.4,1.8c0.2,1.6,0.2,3.1,0,4.7c-0.2,1-0.5,1.9-1.6,2c-1,0.1-1.1-1.1-1.3-1.9c-0.2-0.8-0.2-1.6-0.3-2.3
					c-0.1-2.1-0.4-3.9-3.2-3.7c-0.7,0-1.4-0.4-1.8-1C221.2,288.6,220.2,287.3,219,285.8z M224.9,318.1c0,0.5-0.2,1-0.8,1
					c-0.5,0.1-0.9-0.2-1-0.7c0-0.1,0-0.1,0-0.1c0-0.6,0.2-0.9,0.8-0.9C224.5,317.3,224.9,317.4,224.9,318.1z M210.4,305
					c1.9-2.3,8.6-2.7,10.7-0.7c1.1,1,0.9,1.8-0.5,2.4c-2,0.7-4.2,1-6.3,0.9h-3c-0.6,0-1.3,0-1.7-0.8
					C209.6,306,209.9,305.4,210.4,305z M219.3,314.4c-0.1-0.4-0.1-0.9,0-1.3V311c0-0.9,0.6-1,1.3-1c0.7,0,1.2,0,1.2,1
					c-0.1,1,0,2.3,0,3.3c-0.1,1-0.9,1.7-1.8,1.7C218.7,316.1,219.5,314.9,219.3,314.4z M199.3,327.7c0.2-0.6,0.4-0.7,1-0.7
					c5.2,0.2,10.4-0.4,15.5-1.8c3.8-0.9,4.6-0.3,4.9,3.8c0,0.6,0.1,1.1,0.1,1.7c-0.2,4.9-1.5,9.6-3.9,13.9c-0.5,0.9-1,1.7-1.7,2.4
					c-2.2,2.5-4.3,2.2-5.9-0.7c-0.5-0.9-0.3-1.4,0.2-2.4c1.3-2.3,3.2-4.3,5.4-5.8c2.5-2.1,3.7-5.2,3.3-8.4c-0.1-1.5-0.6-2-2.3-2.1
					c-2.3-0.4-4.5,1.1-5,3.4c-0.8,2.5-2,4.9-2.9,7.3c-0.3,0.6-0.7,1.3,0.5,1.5c0.7,0.2,1,0.7,0.8,1.5c-0.1,0.7-0.6,1.3-1.2,1.7
					c-0.8,0.4-1.1-0.4-1.4-0.9c-2.4-3.2-4.7-6.5-7.1-9.6C198.5,330.9,199,329.3,199.3,327.7L199.3,327.7L199.3,327.7z M199.6,346.1
					c-1.7-3.9-1.4-8.1-1.4-12.3c3.1,4.1,6.3,8,9,12.4c0.6,1,0.3,1.4-0.7,1.7c-0.6,0.2-1.2,0.4-1.8,0.6
					C201.2,349.7,201.2,349.7,199.6,346.1L199.6,346.1z M202.1,359.6c-0.7-0.4-1-1.1-1-1.9c0-0.3,0.2-0.9,0.5-0.7
					c0.7,0.3,1.2,1,1.2,1.8C203,359.4,202.7,359.6,202.1,359.6L202.1,359.6z M203.3,356.7c-0.7-1,0.1-1.3,0.8-1.8
					c0.9-0.6,1.1,0.2,1.3,0.8c0.7,1.5,1.2,3.1,1.4,4.7C205.4,359.4,204.2,358.2,203.3,356.7L203.3,356.7z M224.2,359.8
					c-2.5,0.5-5.1,0.7-7.7,0.6c-3.3,0.6-6.4,0.2-8.7-2.7c-0.9-0.8-1.3-2.1-1-3.3c0.6-1.1,1.7-1.7,3-1.7c0.7-0.1,1.4-0.1,2.1-0.3
					c3.4-1,7.1,0.4,9,3.4c0.4,0.6,0.9,1.7,1.7,0.9c0.8-0.8-0.3-1.2-0.7-1.7c-1.2-1.2-2.2-2.6-3.1-4.1c-0.3-0.6-0.6-1.7,0-2
					c0.6-0.3,1.2,0.5,1.6,1.1c1.8,2.6,2.9,5.5,4.8,8C226.4,359.5,224.9,359.6,224.2,359.8z M231.6,354c-2.1,0.5-1.6,2.1-1.5,3.6
					c0,1.2-0.5,1.7-1.8,1.2c-0.7-0.3-1.4-0.8-1.8-1.4c-1.5-2-2.1-4.5-3.7-6.5c-0.3-0.4-0.3-1,0-1.4c0.2-0.3,0.6-0.4,1-0.3
					c0.5,0.2,0.6,0.7,0.7,1.2c0,0.3,0,0.6,0,0.9c-0.1,0.5,0.3,0.9,0.8,1c0,0,0.1,0,0.1,0c0.5,0,0.6-0.5,0.7-0.9
					c1-2.7,1.4-2.8,3.2-0.6c0.8,0.9,1.9,1.5,2.4,2.8C231.8,353.6,231.7,354,231.6,354L231.6,354z M223.2,323.8l17.2-2.2
					c-0.4,3.3-3.3,5.6-7.8,6.5C228.8,329,224.9,327.2,223.2,323.8z M234.2,357.8c-1.1,0.1-0.9-0.7-1-1.2c-0.1-0.5-0.1-1.3,0.7-1.4
					s1.2,0.7,1.3,1.4C235.3,357.3,235.1,357.7,234.2,357.8z M248.3,348.4c-0.1,0.6-0.2,1.3-0.2,1.9c-0.2,4.2-0.2,4.2-4.5,5.3
					c-1.7,0.4-3.2,0.8-4.8,1.2c-0.8,0.2-1.7,0.3-2.2-0.4c-0.5-0.7-0.2-1.5,0.2-2.2c2.3-3.9,5.4-6.8,10.4-7.2
					C248.2,346.8,248.6,347.3,248.3,348.4L248.3,348.4L248.3,348.4z M251.3,352.4c-0.3,0.4-0.4,1.3-1.1,1c-0.7-0.2-0.3-1-0.4-1.5
					c0-0.2,0-0.4,0-0.6c0-1.3,0.3-2.7,0.8-3.9c0.2-0.8,0.6-0.9,1.2-0.8c0.6,0.1,0.6,0.7,0.6,1.1C252.5,349.3,252.2,351,251.3,352.4
					L251.3,352.4z M257.1,351.1c-0.8,1.3-2.3,1.9-3.8,1.7c0.3-1.2,0.5-2.2,0.8-3.3c0.2-0.7-0.1-1.8,0.8-2c0.9-0.2,1.5,0.6,2.1,1.3
					C257.6,349.3,257.7,350.3,257.1,351.1L257.1,351.1L257.1,351.1z M257.9,321.6c-1.4,2.4-3.9,2.3-6.1,2.7c-1.9,0.1-3.7-0.7-5-2.1
					c-0.6-0.7-0.9-1.4,0.5-1.4c0.7,0,1.4-0.3,2.1-0.4c1.4,0.1,2.8-0.7,3.4-2c0.7-1.3,1.9-2.3,3.3-2.8c0.5-0.2,1.1-0.6,1.3,0.3
					c0.2,0.6,0.2,1.2-0.5,1.4c-0.6,0.1-1.1,0.4-1.4,0.9c-0.4,0.5-0.4,1.2-0.1,1.8c0.4,0.8,0.8,0.1,1.2,0c0.4-0.1,1.2-0.3,1.4,0.2
					C258.3,320.6,258.2,321.2,257.9,321.6z M258.8,299.5c1.9-2.2,4.7-3.5,7.6-3.6c1.7,0.3,0.2,1.6,0.5,1.9c0.6,2.3-0.6,2.9-2.2,3.3
					c-1.5,0.4-3.1,0.6-4.6,0.7C258.4,301.8,257.9,300.9,258.8,299.5z M260.4,317.3c-0.7,0-0.9-0.4-0.9-1c-0.1-0.8,0.5-1.6,1.3-1.7
					c0,0,0,0,0.1,0c0.7,0,1,0.5,1,1.2C261.9,316.6,261.2,317.3,260.4,317.3C260.4,317.3,260.4,317.3,260.4,317.3L260.4,317.3z
					 M264.3,347.8c-1,0.1-1.9-0.7-2-1.7c0-0.1,0-0.1,0-0.2c0-1.3,1.1-3,1.9-3c1.4,0,1.6,1.7,1.9,2.8
					C266.1,347,265.4,347.8,264.3,347.8L264.3,347.8z M265.5,316.8c-0.3-0.5-0.3-1.2,0-1.7c0.2-0.4,0.7-0.5,1.1-0.4
					c0.6,0.2,0.9,0.8,0.8,1.4c-0.2,1.7,1,1.9,2.3,2c1.7,0.1,3.1-0.7,4.7-0.6c0.5,0,1.3-0.1,1.5,0.5s-0.7,1-1.2,1.2
					c-1.2,0.5-2.5,0.7-3.8,0.7C268,319.9,266.3,318.9,265.5,316.8L265.5,316.8z M276.4,343.9c-1.8,0.9-3.6,1.8-5.4,2.6
					c-2.5,1.1-4,0-4-2.9c-0.1-1.5,0.8-2.9,2.3-3.3c2.4-1,5.2-0.6,7.3,0.9C278.1,342.1,278,343.1,276.4,343.9L276.4,343.9z
					 M276.4,316.5c-0.3,0-0.6,0-0.9-0.2c-1.2-0.3-2.9-0.4-3-1.9c-0.2-1.5,1.2-2,2.3-2.5c1.1-0.4,1.9-1.3,2.2-2.4
					c0.4-2.1,2.4-3.5,4.5-3.2c0.6,0.1,1.1,0.3,1.5,0.6c2.3,1.2,4.2,3,5.6,5.2c0.6,0.9,0.5,1.9-0.6,1.9
					C284,314.2,280.2,315.7,276.4,316.5L276.4,316.5L276.4,316.5z M282.3,316.6c-0.1-1.1,1.8-0.7,2.9-0.9c1.1-0.3,2.2-0.4,3.3-0.2
					c0.4,0.1,0.9,0.2,0.8,0.8c0,0.6-0.4,0.5-0.7,0.7c-1.1,0.3-2.3,0.4-3.5,0.3C284.1,317.2,282.3,317.9,282.3,316.6L282.3,316.6z
					 M292,333.9c-2,1.1-3.9,2.4-5.8,3.6c-1.1,0.7-1.5,0.3-1.5-0.9c0-3.3,0.8-6.5,2.2-9.5c1.2-2.7,2.7-5.2,3.9-7.8
					c0.8-1.7,1.3-1,1.9,0c1.6,2.8,2.4,5.9,2.3,9.1C295.5,330.8,294.2,332.6,292,333.9L292,333.9z M295.5,346l-0.5-0.5
					c2-2.3,4-4.6,6.1-6.9c1.5-1.6,3.3-0.2,5-0.7l0.2,0.5L295.5,346z M304.3,336.2c1.7-1.8,1.1-2,4.6,0H304.3z M307.5,333.4
					c0-0.2,0.2-0.5,0.3-0.5c0.9,0,1.2,0.7,1.4,1.5C308.5,334,307.5,334.4,307.5,333.4L307.5,333.4z M311.3,330
					c0.2,1.5,0.3,2.9,0.5,4.4C308.2,332.3,308.2,332.3,311.3,330L311.3,330z M306.8,322.7c-2-3.5-3.9-7-5.5-10.7
					c4.3,3.4,5.5,9.1,10.7,11C308.7,326.2,308.7,326.2,306.8,322.7L306.8,322.7z M313.5,330.7c0.1,0.6-0.1,1.3-0.6,1.4
					s-0.2-0.6-0.2-1c-0.1-2-0.1-2,1.1-2.8C314.1,329.1,313.3,329.9,313.5,330.7L313.5,330.7z"/>
			</g>
		</g>
		<defs>
			<filter id="Adobe_OpacityMaskFilter" filterUnits="userSpaceOnUse" x="168.4" y="230.2" width="175.2" height="171.1">
				
					<feColorMatrix  type="matrix" values="-1 0 0 0 1  0 -1 0 0 1  0 0 -1 0 1  0 0 0 1 0" color-interpolation-filters="sRGB" result="source"/>
			</filter>
		</defs>
		<mask maskUnits="userSpaceOnUse" x="168.4" y="230.2" width="175.2" height="171.1" id="SVGID_1_">
			<g class="st10">
				
					<image style="overflow:visible;" width="180" height="176" xlink:href="393EFF43.jpg"  transform="matrix(1 0 0 1 166.3615 227.6385)">
				</image>
			</g>
		</mask>
		<g class="st11">
			<g>
				<path d="M240.8,399.5c7.8-3.9,15.7-3.8,23.8-1.2c2.8,1,5.9,1,8.7,0c-0.4,1.7-0.9,2.1-3.2,2.6c-1.3,0.3-2.6,0.5-3.9,0.3h-0.4
					c-7.6-0.9-15.1-2.5-22.7-0.9c-0.5,0.1-1.1,0.1-1.7,0.2l-1.9-0.1C239.8,400.1,240.3,399.8,240.8,399.5z"/>
				<path d="M215.3,388.4c1.1-1,2.4-1.6,3.9-1.8c6.2-1.4,12.4-0.6,18.5,0.6c5.8,1.4,12,0.5,17.1-2.5c4.5-2.7,9.3-2.1,14.1-0.9
					c4.8,1.2,9,2.9,13.6,3.7c5.5,1,11.2,0.3,16.3-2c0.3-0.1,0.5-0.1,0.8-0.2c-1,1.7-2.6,2.9-4.5,3.5c-6,2-12.4,2.5-18.6,1.4
					c-5.2-0.7-10.4-2-15.6-2.5c-2.2-0.2-4.4,0.1-6.5,0.9c-3.7,1.8-7.7,2.7-11.8,2.7c-1.6,0-3.1-0.2-4.6-0.7
					C230.8,387.9,222.9,387.1,215.3,388.4z"/>
				<path d="M189.1,379c9.1-1.2,10.8-1.8,13.6-5.2c0.2,0.2,0.4,0.3,0.6,0.5c1.9,2.9,5.5,4.2,8.8,3.1c4.2-1,8.5-1.8,12.8-2.3
					c5.3-0.6,10.6,0.5,15.3,3l3.6,1.8c3.2,1.9,7.3,1.4,10-1.2c-0.1,2.3-1.8,3.8-4.8,4.1c-5.1,0.6-10.2-0.2-14.8-2.4
					c-6.9-3.5-13.9-3.2-20.9-0.9c-2.1,0.8-4.4,1.2-6.6,1.1c-1.3,0.1-2.6-0.3-3.5-1.2c-1.3-1.7-2.5-1.2-4-0.7
					C195.9,379.9,192.4,380,189.1,379z"/>
				<path d="M343.6,385.8c-1.7,1-3.6,1.6-5.5,1.7c-4.2,0.2-8.4-0.3-12.5-1.4c-5-1.2-9.7-0.5-15,0.6c5.1-3.3,10.1-5,15.6-3.8
					C331.6,384.1,337.2,385.7,343.6,385.8z"/>
				<path d="M168.4,383.7c1.4-0.2,2.8,0.1,4.1,0.7c4.5,1.5,8.9,0.5,13.3-0.2c3.8-0.9,7.8-1,11.6-0.3c0.5,0,1,0.4,1.3,0.8
					c-5.7,0.3-11.1,1.8-16.6,2.3C177.3,387.9,172.3,386.6,168.4,383.7z"/>
				<path d="M300.1,394.4c5.5-2.8,12-3.1,17.8-0.8c3.2,1.1,6.5,2.2,10,1.3c-3.1,2-7.1,2.4-10.5,1c-5.4-2.1-11.2-2.4-16.8-1.1
					c-0.4,0.1-2,0.7-2,0.7C299,395,299.5,394.6,300.1,394.4z"/>
				<path d="M195.2,391c4.9-2.6,10.7-3,15.9-1.2c3.5,1.4,7.2,2.2,11,2.2c-3.1,1.8-6.7,2-10,0.5c-5.2-2-10.9-2.4-16.3-1
					c-0.7,0.3-1.4,0.5-2.2,0.6C194,391.5,194.6,391.2,195.2,391z"/>
				<path d="M315.6,372c-0.3,0-0.7,0.2-1,0.3c-4.9,1.5-10.1,1.5-15-0.2c-1.4-0.5-2.7-1.9-3.9-2c-1.2-0.1-2.1,2-3.3,2.8
					c-3.6,2.1-7.8,3.2-12,3.3h-3.8c0,0-0.5,0-0.5,0c0,0,0.4,0.2,0.5,0.2l2.1,0.4c0.5,0.1,1,0.2,1.5,0.3c4.9,0.5,9.9,1.1,14.1-1.8
					c1.6-1.3,3.8-1.5,5.5-0.4c5.9,2.7,12.7,1.3,16.2-3C315.7,372.1,315.7,371.9,315.6,372z"/>
				<path d="M218,275.6c-0.3,0.2-0.8,0-0.9,0.5l-0.7-0.7C217,275,217.5,275.3,218,275.6z"/>
				<path d="M312.9,319.3c-3.5-6.7-9.3-12-16.2-15c-0.7-0.2-1.3-0.7-1.7-1.3c-2.1-4-5.8-7-7.8-11.2c-1.1-1.9-2.8-3.4-4.8-4.2
					c-0.7-0.3-1.3-0.6-1.8-1.1c-2-2.7-4.5-2.3-7-1.1c-1.8,0.8-2.4,0-2.7-1.5c-0.4-1.8,0.1-3.6,1.2-5c2.4-3.4,5.1-6.6,8.3-9.3
					c-2.6,0.2-5.1,0.5-7.6,1.1c-2.1,0.3-4.2,0.9-6.3,1.2c-1,0.2-2,0-2.3-1.1c-0.3-1.1,0.9-1.3,1.7-1.6c2.3-0.8,4.8-1.5,7.1-2.2
					c0.5-0.2,1.2,0,1.3-0.8c0.5-2,0.8-3.9,0.9-5.9c-2.9,0.8-5.7,1.6-8.5,2.2c-1.2,0.3-2.6,0.3-3-1.2c-1.2-4,1-6.9,5.2-6.7
					c0.9,0.1,1.7,0.3,2.5,0.6c1.5,0.6,3,1.3,4.6,2c1.4-5.1,2.2-10.3,5.5-14.8c-5.2,1-10.2,1.9-15.1,3.1c-2.1,0.5-2.5,0.1-2.4-1.9
					c0.2-4.4,0-8.8,0-13.5c-3.4,2.6-7.6,4-11.9,3.9c-0.9,0-1.2,0.3-1,1.1c0.3,2-0.1,4-1.2,5.7c-0.8,1.3-1.2,2.8-1.1,4.3
					c5-4.6,4-3.3,12.4-4.8c0.7,5.9,0.5,6.2-5,8c-0.6,0.2-1.2,0.3-1.9,0.5c-3.5,1.1-7.1,0.8-10.7,0.9c0.2,0.6,0.3,1.1,0.4,1.6
					c0.8,2.6,1.3,5.3,1.4,8c0.2,2.1-1.2,4-3.2,4.4c0-1.7,0-3.5,0-5.2c0-0.7,0.5-1.8-0.5-2.1c-0.7-0.3-1.5,0.3-2.1,0.8
					c-2.2,1.9-2.5,1.7-3.2-1.2c-0.1-0.6-0.3-1.2-0.5-1.8c-0.3-0.9-1.2-1.3-2.1-1c-1.5,0.4-2.3,1.9-3.9,2.4c-0.5,0.2-0.2,2,0,3
					c0.9-0.2,1.7-0.3,2.4-0.5c0.7-0.2,1.9-0.5,2.6,0.7c1,1.7,2.2,2.6,4.3,1.7c0.4-0.2,1.1-0.5,1.3,0.5c0.9,3-0.3,4.5-3.3,4.1
					c0.1,1.6,0.4,3.1,1,4.6c1.2,3.6,1,4.1-2.6,4.8c0.7,2.9,1.7,5.8,0.8,8.8c-0.3,1-0.7,2-2,1.7c-1-0.2-1.3-1.1-1.2-2.2
					c0.1-1.6,0.1-3.1,0-4.7c-0.3-3.3-0.7-3.6-4-3.3c-3.7,0.3-7.4,0.7-11.1,0.6c-0.5-0.2-1-0.3-0.9,0.5c2.2,2.9,2.2,5.3-0.3,7.8
					c-0.7,0.6-0.8,1.6-0.2,2.3c0.1,0.1,0.1,0.1,0.2,0.2l3.9,4.7c-4,0.3-8,0.2-12-0.1c1.2,3.3,1.1,6.9-0.2,10.1c-0.6,1.5-1,3.1-1,4.7
					c0.1,1.2-0.3,1.4-1.4,1.4c-2.1-0.1-4.2,0-6.4,0c1.2,1,2.3,2,3.3,3.2c2.3,2.4,2.6,6.1,0.7,8.9c-1.6,2.8-3.7,5.3-6.2,7.3
					c-0.5,0.4-1,0.5-1.1,1.4c-0.6,5.8-0.2,11.6,1.1,17.2c0.5,1.9,2.1,3.8,1.9,5.3c-0.2,1.5-2.6,2.6-4,3.8c-0.8,0.5-1.1,1.6-0.6,2.4
					c2.1,4.4,4.1,8.8,6.1,13.2c0.3,0.7,0.6,0.9,1.4,0.6c4-1.1,8.1-1.8,12.2-2.1c7.7-0.7,15.4,0.9,22.1,4.6c1.1,0.7,2.5,0.8,3.8,0.3
					c11.9-4.2,24-7.5,36.8-5.9c0.7,0.2,1.4-0.2,1.7-0.9c7.1-14,18.8-22.7,33.3-28c0.6-0.2,1-0.3,1.1-1c0.7-5.4,2.4-10.5,5.2-15.2
					C314.8,323.8,314.1,321.5,312.9,319.3z M295.3,312.1c1.7,3.3,3.1,6.9,4.8,10.3c0.8,2,2.3,3.7,4.2,4.7c-1.1,1-1.8,2.7-3.2,2.4
					c-1.4-0.3-1.1-2.2-1.5-3.5c-1.7-5.6-3.8-11.1-8.1-15.4c-0.7-0.7-1.5-1.4-2.4-1.8c-0.5-0.2-0.7-0.7-0.6-1.1c0,0,0-0.1,0-0.1
					c0.3-0.8,0.8-0.3,1.2-0.2C292.3,308,294.3,309.7,295.3,312.1z M286.4,292.7c1.4,3.1,3.9,5.4,5.7,8.3l0.8,1.3
					c0.3,0.5,0.7,1.1,0.2,1.5c-0.6,0.4-1.2-0.1-1.6-0.7c-2.9-4.9-7.1-8.9-10.2-14.3C283.4,289.4,285.3,290.8,286.4,292.7
					L286.4,292.7z M277.8,290c0.7-1.2,1.4-1.2,2.3-0.1c2.8,3.7,5.6,7.3,8.3,11.1c1.7,2.2,1.2,3-1.6,3.3c-0.8,0.1-1.6,0.1-2.3,0.1
					c-3.5,0-4-0.4-4.1-4.1c0.1-0.5-0.2-1.1-0.7-1.3C277.3,296.7,276.5,293.1,277.8,290z M273.2,297.5c0.7,0,1.3,0.3,1.3,1.1
					c0,0.7-0.6,1.2-1.3,1.1c0,0,0,0,0,0c-1,0-0.4-0.9-0.6-1.3C272.3,298.1,272.5,297.4,273.2,297.5L273.2,297.5z M269.5,296.8
					c1,0.2,1.1,0.9,1,2.3c0,0,0.2,1-0.4,0.9c-1.3-0.2-0.9-1.6-1.1-2.4C268.6,297,268.9,296.6,269.5,296.8L269.5,296.8L269.5,296.8z
					 M270.1,313.8c0.7,0,1,0.4,1.1,1.1c-0.2,0.6-0.3,1.3-1.1,1.3c-0.6,0.1-1.1-0.2-1.3-0.8c0-0.1,0-0.2,0-0.3
					c-0.1-0.7,0.4-1.3,1.1-1.4C269.9,313.7,270,313.7,270.1,313.8L270.1,313.8L270.1,313.8z M265,281.4c1.7-0.2,3.2,0.9,3.4,2.6
					c0,0.1,0,0.1,0,0.2c0.1,1.4-1,2.6-2.4,2.7c-0.1,0-0.3,0-0.4,0c-2.4,0.1-1.5-1.7-1.7-2.9C264.4,283.1,263,281.5,265,281.4
					L265,281.4L265,281.4z M262.3,284.3c0,0.6,0.5,1.7-0.6,1.7c-0.8,0-0.7-1-0.7-1.7c-0.1-0.8,0.4-1.6,1.2-1.9
					C262.3,283,262.3,283.6,262.3,284.3L262.3,284.3L262.3,284.3z M257.8,260.7c1-1.7,2.4-3.1,4-4.1c0,1.9,0,3.5,0,5.1
					c0,1.2-0.9,1.2-1.7,1.5c-0.7,0.3-1.9,0.5-2.5-0.4C257.2,262.2,257.3,261.3,257.8,260.7L257.8,260.7L257.8,260.7z M255.8,269.4
					c1.7-0.3,3.4-0.3,5.1,0c1.6,0.2,1.1,1.5,0.7,2.3c-0.8,1.7-2.5,1.9-4.6,1.9c-0.4,0-0.9-0.1-1.3-0.2c-1-0.2-1.7-1.1-1.7-2.1
					C254.1,270,254.8,269.5,255.8,269.4L255.8,269.4L255.8,269.4z M259.1,287c-0.5,0-1-0.3-1.2-0.7c-0.9-1.4-0.3-2.9,1.8-4.1
					c0,1.4,0,2.5,0,3.7c0,0.4,0.3,1.1-0.5,1.1L259.1,287z M253.9,285.6c0.3-1.1,1.1-1.7,2.3-2.6c0,1.3,0.2,2.1,0.2,3
					c0,0.5,0.7,1.2-0.1,1.7c-0.6,0.2-1.2,0.1-1.7-0.2C253.9,287,253.7,286.3,253.9,285.6L253.9,285.6z M251.4,269.2
					c0.7,0,1.2-0.2,1.2,1c-0.2,3.7-0.1,3.8-3.1,3.8c-1.5,0.2-2.7-0.3-2.7-2.3S248.1,269.2,251.4,269.2L251.4,269.2z M243.9,270
					c1.9-0.1,0.9,1.3,1.1,2c0.4,1.8-0.5,2.7-2.2,2.7c-1.2,0.1-2.3-0.8-2.4-2c0-0.1,0-0.1,0-0.2C240.4,271.2,242.2,270,243.9,270
					L243.9,270z M237.8,286c3.4-1.3,7.2-1.6,10.7-0.8c0.7,0.2,1.3,0.6,1.8,1.1c0.5,0.3,0.7,0.9,0.6,1.5c-0.2,0.6-0.8,0.7-1.4,0.7
					c-3.1,0.3-6.3,0.6-9.3,0.9c-0.6,0-1.1,0-1.7,0c-0.9,0.2-1.7-0.4-1.8-1.3c0,0,0-0.1,0-0.1C236.4,287.2,236.9,286.3,237.8,286
					C237.8,286,237.8,286,237.8,286L237.8,286z M236,303.2c-0.1,1.4-1.7,1.3-2.9,1.3s-2.1-0.5-1.9-1.7s1.5-0.9,2.4-1.1
					C234.6,301.9,236.2,301.9,236,303.2L236,303.2z M219,285.8c4.1-0.7,7.8-1.6,11.6-0.7c0.4,0,0.7,0.1,1,0.2c1.2,0.5,2.4,1,2.3,2.7
					c-0.1,1.3-1.2,2.3-2.4,2.2c-1.3,0.1-1.5,0.7-1.4,1.8c0.2,1.6,0.2,3.1,0,4.7c-0.2,1-0.5,1.9-1.6,2c-1,0.1-1.1-1.1-1.3-1.9
					c-0.2-0.8-0.2-1.6-0.3-2.3c-0.1-2.1-0.4-3.9-3.2-3.7c-0.7,0-1.4-0.4-1.8-1C221.2,288.6,220.2,287.3,219,285.8z M224.9,318.1
					c0,0.5-0.2,1-0.8,1c-0.5,0.1-0.9-0.2-1-0.7c0-0.1,0-0.1,0-0.1c0-0.6,0.2-0.9,0.8-0.9C224.5,317.3,224.9,317.4,224.9,318.1z
					 M210.4,305c1.9-2.3,8.6-2.7,10.7-0.7c1.1,1,0.9,1.8-0.5,2.4c-2,0.7-4.2,1-6.3,0.9h-3c-0.6,0-1.3,0-1.7-0.8
					C209.6,306,209.9,305.4,210.4,305z M219.3,314.4c-0.1-0.4-0.1-0.9,0-1.3V311c0-0.9,0.6-1,1.3-1c0.7,0,1.2,0,1.2,1
					c-0.1,1,0,2.3,0,3.3c-0.1,1-0.9,1.7-1.8,1.7C218.7,316.1,219.5,314.9,219.3,314.4z M199.3,327.7c0.2-0.6,0.4-0.7,1-0.7
					c5.2,0.2,10.4-0.4,15.5-1.8c3.8-0.9,4.6-0.3,4.9,3.8c0,0.6,0.1,1.1,0.1,1.7c-0.2,4.9-1.5,9.6-3.9,13.9c-0.5,0.9-1,1.7-1.7,2.4
					c-2.2,2.5-4.3,2.2-5.9-0.7c-0.5-0.9-0.3-1.4,0.2-2.4c1.3-2.3,3.2-4.3,5.4-5.8c2.5-2.1,3.7-5.2,3.3-8.4c-0.1-1.5-0.6-2-2.3-2.1
					c-2.3-0.4-4.5,1.1-5,3.4c-0.8,2.5-2,4.9-2.9,7.3c-0.3,0.6-0.7,1.3,0.5,1.5c0.7,0.2,1,0.7,0.8,1.5c-0.1,0.7-0.6,1.3-1.2,1.7
					c-0.8,0.4-1.1-0.4-1.4-0.9c-2.4-3.2-4.7-6.5-7.1-9.6C198.5,330.9,199,329.3,199.3,327.7L199.3,327.7L199.3,327.7z M199.6,346.1
					c-1.7-3.9-1.4-8.1-1.4-12.3c3.1,4.1,6.3,8,9,12.4c0.6,1,0.3,1.4-0.7,1.7c-0.6,0.2-1.2,0.4-1.8,0.6
					C201.2,349.7,201.2,349.7,199.6,346.1L199.6,346.1z M202.1,359.6c-0.7-0.4-1-1.1-1-1.9c0-0.3,0.2-0.9,0.5-0.7
					c0.7,0.3,1.2,1,1.2,1.8C203,359.4,202.7,359.6,202.1,359.6L202.1,359.6z M203.3,356.7c-0.7-1,0.1-1.3,0.8-1.8
					c0.9-0.6,1.1,0.2,1.3,0.8c0.7,1.5,1.2,3.1,1.4,4.7C205.4,359.4,204.2,358.2,203.3,356.7L203.3,356.7z M224.2,359.8
					c-2.5,0.5-5.1,0.7-7.7,0.6c-3.3,0.6-6.4,0.2-8.7-2.7c-0.9-0.8-1.3-2.1-1-3.3c0.6-1.1,1.7-1.7,3-1.7c0.7-0.1,1.4-0.1,2.1-0.3
					c3.4-1,7.1,0.4,9,3.4c0.4,0.6,0.9,1.7,1.7,0.9c0.8-0.8-0.3-1.2-0.7-1.7c-1.2-1.2-2.2-2.6-3.1-4.1c-0.3-0.6-0.6-1.7,0-2
					c0.6-0.3,1.2,0.5,1.6,1.1c1.8,2.6,2.9,5.5,4.8,8C226.4,359.5,224.9,359.6,224.2,359.8z M231.6,354c-2.1,0.5-1.6,2.1-1.5,3.6
					c0,1.2-0.5,1.7-1.8,1.2c-0.7-0.3-1.4-0.8-1.8-1.4c-1.5-2-2.1-4.5-3.7-6.5c-0.3-0.4-0.3-1,0-1.4c0.2-0.3,0.6-0.4,1-0.3
					c0.5,0.2,0.6,0.7,0.7,1.2c0,0.3,0,0.6,0,0.9c-0.1,0.5,0.3,0.9,0.8,1c0,0,0.1,0,0.1,0c0.5,0,0.6-0.5,0.7-0.9
					c1-2.7,1.4-2.8,3.2-0.6c0.8,0.9,1.9,1.5,2.4,2.8C231.8,353.6,231.7,354,231.6,354L231.6,354z M223.2,323.8l17.2-2.2
					c-0.4,3.3-3.3,5.6-7.8,6.5C228.8,329,224.9,327.2,223.2,323.8z M234.2,357.8c-1.1,0.1-0.9-0.7-1-1.2c-0.1-0.5-0.1-1.3,0.7-1.4
					s1.2,0.7,1.3,1.4C235.3,357.3,235.1,357.7,234.2,357.8z M248.3,348.4c-0.1,0.6-0.2,1.3-0.2,1.9c-0.2,4.2-0.2,4.2-4.5,5.3
					c-1.7,0.4-3.2,0.8-4.8,1.2c-0.8,0.2-1.7,0.3-2.2-0.4c-0.5-0.7-0.2-1.5,0.2-2.2c2.3-3.9,5.4-6.8,10.4-7.2
					C248.2,346.8,248.6,347.3,248.3,348.4L248.3,348.4L248.3,348.4z M251.3,352.4c-0.3,0.4-0.4,1.3-1.1,1c-0.7-0.2-0.3-1-0.4-1.5
					c0-0.2,0-0.4,0-0.6c0-1.3,0.3-2.7,0.8-3.9c0.2-0.8,0.6-0.9,1.2-0.8c0.6,0.1,0.6,0.7,0.6,1.1C252.5,349.3,252.2,351,251.3,352.4
					L251.3,352.4z M257.1,351.1c-0.8,1.3-2.3,1.9-3.8,1.7c0.3-1.2,0.5-2.2,0.8-3.3c0.2-0.7-0.1-1.8,0.8-2c0.9-0.2,1.5,0.6,2.1,1.3
					C257.6,349.3,257.7,350.3,257.1,351.1L257.1,351.1L257.1,351.1z M257.9,321.6c-1.4,2.4-3.9,2.3-6.1,2.7c-1.9,0.1-3.7-0.7-5-2.1
					c-0.6-0.7-0.9-1.4,0.5-1.4c0.7,0,1.4-0.3,2.1-0.4c1.4,0.1,2.8-0.7,3.4-2c0.7-1.3,1.9-2.3,3.3-2.8c0.5-0.2,1.1-0.6,1.3,0.3
					c0.2,0.6,0.2,1.2-0.5,1.4c-0.6,0.1-1.1,0.4-1.4,0.9c-0.4,0.5-0.4,1.2-0.1,1.8c0.4,0.8,0.8,0.1,1.2,0c0.4-0.1,1.2-0.3,1.4,0.2
					C258.3,320.6,258.2,321.2,257.9,321.6z M258.8,299.5c1.9-2.2,4.7-3.5,7.6-3.6c1.7,0.3,0.2,1.6,0.5,1.9c0.6,2.3-0.6,2.9-2.2,3.3
					c-1.5,0.4-3.1,0.6-4.6,0.7C258.4,301.8,257.9,300.9,258.8,299.5z M260.4,317.3c-0.7,0-0.9-0.4-0.9-1c-0.1-0.8,0.5-1.6,1.3-1.7
					c0,0,0,0,0.1,0c0.7,0,1,0.5,1,1.2C261.9,316.6,261.2,317.3,260.4,317.3C260.4,317.3,260.4,317.3,260.4,317.3L260.4,317.3z
					 M264.3,347.8c-1,0.1-1.9-0.7-2-1.7c0-0.1,0-0.1,0-0.2c0-1.3,1.1-3,1.9-3c1.4,0,1.6,1.7,1.9,2.8
					C266.1,347,265.4,347.8,264.3,347.8L264.3,347.8z M265.5,316.8c-0.3-0.5-0.3-1.2,0-1.7c0.2-0.4,0.7-0.5,1.1-0.4
					c0.6,0.2,0.9,0.8,0.8,1.4c-0.2,1.7,1,1.9,2.3,2c1.7,0.1,3.1-0.7,4.7-0.6c0.5,0,1.3-0.1,1.5,0.5s-0.7,1-1.2,1.2
					c-1.2,0.5-2.5,0.7-3.8,0.7C268,319.9,266.3,318.9,265.5,316.8L265.5,316.8z M276.4,343.9c-1.8,0.9-3.6,1.8-5.4,2.6
					c-2.5,1.1-4,0-4-2.9c-0.1-1.5,0.8-2.9,2.3-3.3c2.4-1,5.2-0.6,7.3,0.9C278.1,342.1,278,343.1,276.4,343.9L276.4,343.9z
					 M276.4,316.5c-0.3,0-0.6,0-0.9-0.2c-1.2-0.3-2.9-0.4-3-1.9c-0.2-1.5,1.2-2,2.3-2.5c1.1-0.4,1.9-1.3,2.2-2.4
					c0.4-2.1,2.4-3.5,4.5-3.2c0.6,0.1,1.1,0.3,1.5,0.6c2.3,1.2,4.2,3,5.6,5.2c0.6,0.9,0.5,1.9-0.6,1.9
					C284,314.2,280.2,315.7,276.4,316.5L276.4,316.5L276.4,316.5z M282.3,316.6c-0.1-1.1,1.8-0.7,2.9-0.9c1.1-0.3,2.2-0.4,3.3-0.2
					c0.4,0.1,0.9,0.2,0.8,0.8c0,0.6-0.4,0.5-0.7,0.7c-1.1,0.3-2.3,0.4-3.5,0.3C284.1,317.2,282.3,317.9,282.3,316.6L282.3,316.6z
					 M292,333.9c-2,1.1-3.9,2.4-5.8,3.6c-1.1,0.7-1.5,0.3-1.5-0.9c0-3.3,0.8-6.5,2.2-9.5c1.2-2.7,2.7-5.2,3.9-7.8
					c0.8-1.7,1.3-1,1.9,0c1.6,2.8,2.4,5.9,2.3,9.1C295.5,330.8,294.2,332.6,292,333.9L292,333.9z M295.5,346l-0.5-0.5
					c2-2.3,4-4.6,6.1-6.9c1.5-1.6,3.3-0.2,5-0.7l0.2,0.5L295.5,346z M304.3,336.2c1.7-1.8,1.1-2,4.6,0H304.3z M307.5,333.4
					c0-0.2,0.2-0.5,0.3-0.5c0.9,0,1.2,0.7,1.4,1.5C308.5,334,307.5,334.4,307.5,333.4L307.5,333.4z M311.3,330
					c0.2,1.5,0.3,2.9,0.5,4.4C308.2,332.3,308.2,332.3,311.3,330L311.3,330z M306.8,322.7c-2-3.5-3.9-7-5.5-10.7
					c4.3,3.4,5.5,9.1,10.7,11C308.7,326.2,308.7,326.2,306.8,322.7L306.8,322.7z M313.5,330.7c0.1,0.6-0.1,1.3-0.6,1.4
					s-0.2-0.6-0.2-1c-0.1-2-0.1-2,1.1-2.8C314.1,329.1,313.3,329.9,313.5,330.7L313.5,330.7z"/>
			</g>
		</g>
	</g>
</g>
</svg>
